<?xml version="1.0" encoding="iso-8859-1"?>
<!-- Generator: Adobe Illustrator 19.0.0, SVG Export Plug-In . SVG Version: 6.00 Build 0)  -->
<svg version="1.1" id="Capa_1" xmlns="http://www.w3.org/2000/svg" xmlns:xlink="http://www.w3.org/1999/xlink" x="0px" y="0px"
	 viewBox="0 0 511.999 511.999" style="enable-background:new 0 0 511.999 511.999;" xml:space="preserve">
<g>
	<g>
		<g>
			<circle cx="255.999" cy="330.666" r="21.333"/>
			<path d="M474.345,131.624c-3.534-26.501-26.139-46.292-52.875-46.292H182.835c-5.891,0-10.667,4.775-10.667,10.667v21.333
				c0,5.891,4.776,10.667,10.667,10.667h238.646c5.345,0,9.865,3.957,10.572,9.255l12.99,97.411h-263.71
				C81.25,234.666-0.151,316.16,0,416.276c0.008,5.747,4.918,10.391,10.665,10.391h490.667c5.896,0,10.667-4.771,10.667-10.667
				C511.999,415.36,474.345,131.624,474.345,131.624z M46.395,383.999c14.646-61.604,70.604-106.667,134.938-106.667h269.4
				l14.224,106.667H46.395z"/>
		</g>
	</g>
</g>
<g>
</g>
<g>
</g>
<g>
</g>
<g>
</g>
<g>
</g>
<g>
</g>
<g>
</g>
<g>
</g>
<g>
</g>
<g>
</g>
<g>
</g>
<g>
</g>
<g>
</g>
<g>
</g>
<g>
</g>
</svg>
