<svg id="Capa_1" enable-background="new 0 0 509.516 509.516" height="512" viewBox="0 0 509.516 509.516" width="512" xmlns="http://www.w3.org/2000/svg"><g><path d="m480 80.916-10.512 57.814c-19.021.934-29.986 6.84-38.936 11.667-8.498 4.582-15.209 8.202-29.965 8.202-14.755 0-21.467-3.62-29.965-8.202-9.746-5.257-21.876-11.798-44.206-11.798-22.329 0-34.458 6.542-44.204 11.798-8.497 4.582-15.209 8.202-29.963 8.202s-21.465-3.62-29.962-8.202c-9.746-5.256-21.875-11.798-44.203-11.798s-34.457 6.542-44.202 11.798c-8.496 4.583-15.207 8.202-29.96 8.202-14.754 0-21.465-3.62-29.962-8.202-8.122-4.38-17.906-9.651-33.864-11.286l-10.58-58.195-29.516 5.367 62.239 342.317h385.037l62.239-342.316zm-57.761 317.684h-334.963l-41.453-227.996c5.159 1.495 9.267 3.701 13.897 6.198 9.746 5.256 21.875 11.798 44.203 11.798s34.456-6.542 44.201-11.798c8.497-4.583 15.207-8.202 29.96-8.202 14.754 0 21.465 3.62 29.962 8.202 9.746 5.256 21.875 11.798 44.203 11.798s34.458-6.541 44.204-11.798c8.497-4.582 15.209-8.202 29.964-8.202 14.756 0 21.468 3.62 29.965 8.202 9.746 5.257 21.875 11.798 44.205 11.798s34.459-6.541 44.206-11.798c6.08-3.279 11.262-6.056 19.115-7.376z"/><path d="m184.758 218.6h-55v30h55c8.271 0 15 6.729 15 15s-6.729 15-15 15h-30v30h30c8.271 0 15 6.729 15 15s-6.729 15-15 15h-55v30h55c24.813 0 45-20.187 45-45 0-11.517-4.353-22.032-11.495-30 7.141-7.968 11.495-18.483 11.495-30 0-24.814-20.187-45-45-45z"/><path d="m319.758 218.6c-33.084 0-60 26.916-60 60v30c0 33.084 26.916 60 60 60s60-26.916 60-60v-30c0-33.084-26.916-60-60-60zm30 90c0 16.542-13.458 30-30 30s-30-13.458-30-30v-30c0-16.542 13.458-30 30-30s30 13.458 30 30z"/><path d="m389.758 218.6h30v30h-30z"/></g></svg>