<?xml version="1.0" encoding="iso-8859-1"?>
<!-- Generator: Adobe Illustrator 18.0.0, SVG Export Plug-In . SVG Version: 6.00 Build 0)  -->
<!DOCTYPE svg PUBLIC "-//W3C//DTD SVG 1.1//EN" "http://www.w3.org/Graphics/SVG/1.1/DTD/svg11.dtd">
<svg version="1.1" id="Capa_1" xmlns="http://www.w3.org/2000/svg" xmlns:xlink="http://www.w3.org/1999/xlink" x="0px" y="0px"
	 viewBox="0 0 191.736 191.736" style="enable-background:new 0 0 191.736 191.736;" xml:space="preserve">
<g>
	<path d="M184.736,0H7C3.134,0,0,3.134,0,7v177.736c0,3.866,3.134,7,7,7h177.736c3.866,0,7-3.134,7-7V7
		C191.736,3.134,188.603,0,184.736,0z M14,23.9l30.806,30.805c-9.1,11.267-14.565,25.585-14.565,41.162s5.465,29.896,14.565,41.162
		L14,167.836V23.9z M85.968,95.868l-31.199,31.199c-6.6-8.673-10.529-19.484-10.529-31.199s3.928-22.526,10.529-31.199
		L85.968,95.868z M64.669,54.769c8.673-6.6,19.484-10.529,31.199-10.529s22.526,3.929,31.199,10.529L95.868,85.968L64.669,54.769z
		 M95.868,105.768l31.199,31.199c-8.673,6.6-19.484,10.529-31.199,10.529s-22.526-3.929-31.199-10.529L95.868,105.768z
		 M105.768,95.868l31.199-31.199c6.6,8.673,10.529,19.484,10.529,31.199s-3.928,22.526-10.529,31.199L105.768,95.868z
		 M137.031,44.806c-11.267-9.1-25.585-14.566-41.163-14.566s-29.896,5.465-41.163,14.566L23.899,14h143.938L137.031,44.806z
		 M54.706,146.931c11.267,9.1,25.585,14.566,41.163,14.566s29.896-5.465,41.163-14.566l30.806,30.806H23.899L54.706,146.931z
		 M146.931,137.031c9.1-11.267,14.565-25.585,14.565-41.162s-5.465-29.896-14.565-41.162L177.736,23.9v143.936L146.931,137.031z"/>
</g>
<g>
</g>
<g>
</g>
<g>
</g>
<g>
</g>
<g>
</g>
<g>
</g>
<g>
</g>
<g>
</g>
<g>
</g>
<g>
</g>
<g>
</g>
<g>
</g>
<g>
</g>
<g>
</g>
<g>
</g>
</svg>
