<?xml version="1.0" encoding="iso-8859-1"?>
<!-- Generator: Adobe Illustrator 18.0.0, SVG Export Plug-In . SVG Version: 6.00 Build 0)  -->
<!DOCTYPE svg PUBLIC "-//W3C//DTD SVG 1.1//EN" "http://www.w3.org/Graphics/SVG/1.1/DTD/svg11.dtd">
<svg version="1.1" id="Capa_1" xmlns="http://www.w3.org/2000/svg" xmlns:xlink="http://www.w3.org/1999/xlink" x="0px" y="0px"
	 viewBox="0 0 189.841 189.841" style="enable-background:new 0 0 189.841 189.841;" xml:space="preserve">
<g>
	<path d="M184.634,136.389L144.13,66.233l18.182-20.779c2.546-2.909,2.251-7.332-0.658-9.877c-2.91-2.546-7.331-2.251-9.877,0.659
		l-15.042,17.19L111.375,9.5C107.941,3.551,101.79,0,94.92,0S81.9,3.551,78.465,9.5l-25.36,43.925l-15.042-17.19
		c-2.546-2.91-6.969-3.204-9.877-0.659c-2.909,2.546-3.204,6.968-0.658,9.877l18.182,20.779L5.207,136.389
		c-3.435,5.948-3.435,13.051,0,19c3.435,5.949,9.586,9.5,16.455,9.5h17.542l-11.675,13.343c-2.546,2.909-2.251,7.332,0.658,9.877
		c1.328,1.162,2.971,1.732,4.606,1.732c1.948,0,3.887-0.809,5.271-2.391l19.742-22.562h74.229l19.742,22.562
		c1.384,1.582,3.322,2.391,5.271,2.391c1.636,0,3.279-0.57,4.606-1.732c2.909-2.546,3.204-6.968,0.658-9.877l-11.675-13.343h17.542
		c6.869,0,13.021-3.552,16.455-9.5C188.069,149.44,188.069,142.337,184.634,136.389z M90.59,16.5c1.303-2.256,3.462-2.5,4.33-2.5
		s3.027,0.244,4.33,2.5l27.745,48.056L94.92,101.213L62.845,64.556L90.59,16.5z M21.662,150.889c-2.606,0-3.896-1.749-4.331-2.5
		c-0.434-0.752-1.302-2.744,0.001-5l38.119-66.025l30.169,34.479l-34.166,39.046H21.662z M70.056,150.889l24.865-28.417
		l24.865,28.417H70.056z M172.51,148.389c-0.435,0.751-1.725,2.5-4.331,2.5h-29.792l-34.166-39.046l30.169-34.479l38.119,66.025
		C173.812,145.645,172.944,147.637,172.51,148.389z"/>
</g>
<g>
</g>
<g>
</g>
<g>
</g>
<g>
</g>
<g>
</g>
<g>
</g>
<g>
</g>
<g>
</g>
<g>
</g>
<g>
</g>
<g>
</g>
<g>
</g>
<g>
</g>
<g>
</g>
<g>
</g>
</svg>
